<?xml version="1.0" standalone="no"?>
<!DOCTYPE svg PUBLIC "-//W3C//DTD SVG 20010904//EN"
 "http://www.w3.org/TR/2001/REC-SVG-20010904/DTD/svg10.dtd">
<svg version="1.0" xmlns="http://www.w3.org/2000/svg"
 width="512.000000pt" height="512.000000pt" viewBox="0 0 512.000000 512.000000"
 preserveAspectRatio="xMidYMid meet">
<metadata>
Created by potrace 1.11, written by Peter Selinger 2001-2013
</metadata>
<g transform="translate(0.000000,512.000000) scale(0.100000,-0.100000)"
fill="#000000" stroke="none">
<path d="M260 4904 c-9 -23 -23 -79 -35 -137 -2 -10 -6 -26 -9 -35 -19 -63
-26 -298 -12 -402 12 -94 16 -113 37 -193 91 -360 311 -729 664 -1116 78 -86
303 -309 390 -386 43 -38 83 -75 89 -80 108 -102 495 -405 727 -570 291 -207
755 -511 962 -631 76 -44 73 -30 43 -159 -13 -58 -15 -260 -2 -314 78 -335
312 -595 621 -690 101 -32 128 -35 250 -35 340 2 618 207 816 604 44 89 119
277 119 299 0 9 -168 67 -174 60 -1 -2 -15 -40 -31 -84 -218 -614 -649 -851
-1082 -594 -84 50 -193 163 -247 254 -109 187 -128 379 -57 574 38 104 103
202 207 310 107 113 133 144 181 216 82 122 121 223 128 339 l4 65 -72 -6
c-39 -3 -81 -6 -92 -7 -14 -1 -21 -9 -23 -26 -6 -54 -35 -144 -64 -198 -40
-73 -97 -148 -110 -144 -9 2 -175 128 -188 142 -3 3 -21 17 -40 31 -19 15
-192 149 -385 298 -192 150 -362 281 -376 292 -14 11 -39 30 -55 43 -16 13
-110 88 -209 167 -156 124 -531 432 -545 448 -3 4 -39 35 -80 71 -41 36 -80
70 -86 75 -595 537 -960 971 -1181 1403 -69 136 -74 142 -83 116z"/>
<path d="M4790 4810 c-33 -67 -76 -146 -95 -176 -19 -30 -35 -57 -35 -60 0
-24 -238 -341 -386 -514 -92 -107 -420 -443 -544 -555 -246 -225 -491 -433
-823 -700 -181 -145 -197 -160 -180 -172 10 -7 25 -19 33 -26 8 -6 51 -41 95
-75 44 -35 89 -71 100 -80 22 -18 205 -153 293 -216 36 -26 56 -35 65 -29 293
226 499 405 732 638 351 350 551 617 705 940 159 331 209 643 155 950 -8 42
-46 189 -50 193 -2 2 -31 -51 -65 -118z"/>
<path d="M1276 2192 c-4 -8 0 -87 7 -122 11 -56 33 -118 61 -170 16 -30 35
-66 42 -80 21 -41 116 -155 203 -245 82 -85 167 -204 190 -266 7 -19 17 -43
22 -54 17 -35 36 -167 34 -230 -10 -294 -221 -566 -510 -658 -320 -102 -633
72 -831 463 -40 78 -43 86 -89 210 -15 41 -29 76 -30 78 -2 2 -42 -9 -89 -23
-100 -30 -95 -12 -39 -165 142 -383 373 -642 659 -739 187 -62 418 -44 604 49
252 126 454 387 498 643 13 79 6 298 -11 362 -20 73 -42 51 207 204 149 91
184 117 174 127 -27 25 -543 377 -553 377 -6 0 -53 -32 -104 -73 -104 -82 -89
-84 -158 20 -51 77 -81 146 -96 221 -11 57 -16 64 -37 65 -14 1 -53 4 -87 7
-35 3 -65 2 -67 -1z"/>
<path d="M1399 1440 c-168 -68 -390 -222 -544 -376 -68 -68 -132 -144 -150
-178 l-18 -33 34 -49 c38 -56 118 -144 130 -144 11 0 98 41 165 78 57 31 221
146 274 192 123 107 300 303 300 332 0 26 -121 199 -138 197 -4 0 -28 -9 -53
-19z"/>
<path d="M3610 1393 c-27 -38 -57 -83 -66 -101 -15 -33 -15 -33 27 -90 47 -64
205 -224 289 -294 82 -68 212 -154 298 -197 114 -57 116 -57 153 -20 48 49
119 149 119 168 0 19 -91 133 -165 207 -132 132 -309 261 -463 338 -137 68
-133 68 -192 -11z"/>
</g>
</svg>
